<svg width="400" height="400" viewBox="0 0 400 400" fill="none" xmlns="http://www.w3.org/2000/svg">
<g clip-path="url(#clip0_101_221)">
<path d="M243.75 237.5L336.25 263.125H265.625L168.75 237.5H243.75Z" fill="#C94747"/>
<path d="M31.25 137.5H168.75V375H31.25V137.5Z" fill="#F9F3D9"/>
<path d="M168.75 137.5H243.75V237.5H168.75V137.5Z" fill="#DBB471"/>
<path d="M131.25 50L6.875 137.5H168.75L131.25 50Z" fill="#ED4C5C"/>
<path d="M181.25 62.5H200V112.5H181.25V62.5Z" fill="#D0D0D0"/>
<path d="M200 62.5H212.5V118.75H200V62.5Z" fill="#94989B"/>
<path d="M131.25 50L268.75 137.5H168.75L131.25 50Z" fill="#C94747"/>
<path d="M175 50H206.25V62.5H175V50Z" fill="#D0D0D0"/>
<path d="M206.25 50H218.75V62.5H206.25V50Z" fill="#94989B"/>
<path d="M80 173.75H120V213.75H80V173.75Z" fill="#D6EEF0"/>
<path d="M75 168.75V218.75H125V168.75H75ZM120 173.75V191.25H102.5V173.75H120ZM97.5 173.75V191.25H80V173.75H97.5ZM80 213.75V196.25H97.5V213.75H80ZM102.5 213.75V196.25H120V213.75H102.5Z" fill="#89664C"/>
<path d="M191.25 171.25H221.25V216.25H191.25V171.25Z" fill="#D6EEF0"/>
<path d="M188.75 168.75V218.75H223.75V168.75H188.75ZM193.75 173.75H203.75V191.25H193.75V173.75ZM193.75 213.75V196.25H203.75V213.75H193.75ZM218.75 213.75H208.75V196.25H218.75V213.75ZM218.75 191.25H208.75V173.75H218.75V191.25Z" fill="#89664C"/>
<path d="M85.625 306.875H124.375V375H85.625V306.875Z" fill="#89664C"/>
<path d="M120 296.875H130V306.875H120V296.875Z" fill="#89664C"/>
<path d="M75.625 306.875H85.625V375H75.625V306.875Z" fill="#594640"/>
<path d="M71.25 296.875H120V306.875H71.25V296.875Z" fill="#DBB471"/>
<path d="M116.25 340C118.321 340 120 338.321 120 336.25C120 334.179 118.321 332.5 116.25 332.5C114.179 332.5 112.5 334.179 112.5 336.25C112.5 338.321 114.179 340 116.25 340Z" fill="#F9F3D9"/>
<path d="M0.625 375H325.625V400H0.625V375Z" fill="#83BF4F"/>
<path d="M249.375 263.125H307.5V375H249.375V263.125Z" fill="#DBB471"/>
<path d="M168.75 263.125H249.375V375H168.75V263.125Z" fill="#F9F3D9"/>
<path d="M168.75 237.5H31.25L0 263.125H265.625L168.75 237.5Z" fill="#ED4C5C"/>
<path d="M176.875 298.75H216.875V338.75H176.875V298.75Z" fill="#D6EEF0"/>
<path d="M171.875 293.75V343.75H221.875V293.75H171.875ZM216.875 298.75V316.25H199.375V298.75H216.875ZM194.375 298.75V316.25H176.875V298.75H194.375ZM176.875 338.75V321.25H194.375V338.75H176.875ZM199.375 338.75V321.25H216.875V338.75H199.375Z" fill="#89664C"/>
<path d="M263.125 296.25H293.125V341.25H263.125V296.25Z" fill="#D6EEF0"/>
<path d="M260.625 293.75V343.75H295.625V293.75H260.625ZM265.625 298.75H275.625V316.25H265.625V298.75ZM265.625 338.75V321.25H275.625V338.75H265.625ZM290.625 338.75H280.625V321.25H290.625V338.75ZM290.625 316.25H280.625V298.75H290.625V316.25Z" fill="#89664C"/>
<path d="M324.375 375H399.375V400H324.375V375Z" fill="#699635"/>
<path d="M326.25 212.5H351.25V375H326.25V212.5Z" fill="#D3976E"/>
<path d="M351.25 212.5H341.875V215.625C341.875 230 336.875 230 336.875 244.375C336.875 258.75 341.875 258.75 341.875 272.5C341.875 286.875 336.875 286.875 336.875 301.25C336.875 315.625 341.875 315.625 341.875 329.375C341.875 343.75 336.875 343.75 336.875 357.5C336.875 366.25 338.125 370 339.375 374.375H350.625C351.25 375 351.25 212.5 351.25 212.5Z" fill="#89664C"/>
<path d="M332.5 18.125C320.625 35 306.25 4.375 287.5 30.625C268.75 56.875 278.75 80 284.375 96.875C295.625 131.25 272.5 141.875 288.125 170.625C303.125 199.375 281.25 213.125 310 228.75C338.75 244.375 324.375 210.625 353.75 230.625C383.125 250.625 386.875 216.875 383.75 204.375C377.5 181.25 394.375 175.625 399.375 156.25C407.5 121.875 380 103.125 388.75 70.625C396.25 38.75 368.125 -33.75 332.5 18.125Z" fill="#83BF4F"/>
<path d="M387.5 71.25C394.375 46.875 380 0 357.5 0C357.5 0 372.5 20 351.25 45C330 70 369.375 82.5 351.25 105.625C333.125 128.75 368.125 151.25 354.375 169.375C337.5 191.875 310.625 188.75 326.25 231.875V232.5C332.5 228.75 333.125 218.125 352.5 231.25C381.875 251.25 385.625 217.5 382.5 205C376.25 181.875 393.125 176.25 398.125 156.875C406.875 122.5 379.375 103.75 387.5 71.25Z" fill="#699635"/>
<path d="M361.25 70C356.875 70 363.75 66.25 363.75 61.25C363.75 56.25 356.875 52.5 361.25 52.5C365.625 52.5 370 56.25 370 61.25C370 66.25 366.25 70 361.25 70Z" fill="#83BF4F"/>
<path d="M372.5 145.625C365.625 145.625 376.25 140 376.25 133.125C376.25 126.25 365.625 120.625 372.5 120.625C379.375 120.625 385 126.25 385 133.125C385 140 379.375 145.625 372.5 145.625Z" fill="#83BF4F"/>
<path d="M361.25 209.375C356.25 209.375 361.25 205 361.25 200C361.25 195 356.25 190.625 361.25 190.625C366.25 190.625 370.625 195 370.625 200C370.625 205 366.25 209.375 361.25 209.375Z" fill="#83BF4F"/>
<path d="M308.125 75.625C313.125 75.625 306.875 80 306.875 85C306.875 90 313.75 94.375 308.125 94.375C302.5 94.375 298.75 90 298.75 85C298.75 80 303.125 75.625 308.125 75.625Z" fill="#83BF4F"/>
<path d="M328.75 40C335.625 40 325.625 45.625 325.625 52.5C325.625 59.375 336.25 65 328.75 65C321.875 65 316.25 59.375 316.25 52.5C316.25 45.625 321.25 40 328.75 40Z" fill="#83BF4F"/>
<path d="M323.125 135C333.75 135 318.75 143.125 318.75 153.75C318.75 164.375 333.125 172.5 323.125 172.5C312.5 172.5 304.375 164.375 304.375 153.75C304.375 143.125 312.5 135 323.125 135Z" fill="#699635"/>
<path d="M328.75 100.625C333.75 100.625 328.75 105 328.75 110C328.75 115 333.75 119.375 328.75 119.375C323.75 119.375 319.375 115 319.375 110C319.375 105 323.75 100.625 328.75 100.625Z" fill="#699635"/>
<path d="M363.125 356.25H365.625V375H363.125V356.25Z" fill="#83BF4F"/>
<path d="M357.5 336.875V351.25C357.5 353.75 359.375 356.25 362.5 356.25H367.5V346.25C366.875 339.375 357.5 336.875 357.5 336.875Z" fill="#C94747"/>
<path d="M371.875 336.875V351.25C371.875 353.75 370 356.25 366.875 356.25H361.875V346.25C361.875 339.375 371.875 336.875 371.875 336.875Z" fill="#ED4C5C"/>
<path d="M390.625 341.875H393.125V375H390.625V341.875Z" fill="#83BF4F"/>
<path d="M385 321.875V336.25C385 338.75 386.875 341.25 390 341.25H395V331.25C394.375 325 385 321.875 385 321.875Z" fill="#C94747"/>
<path d="M399.375 321.875V336.25C399.375 338.75 397.5 341.25 394.375 341.25H389.375V331.25C389.375 325 399.375 321.875 399.375 321.875Z" fill="#ED4C5C"/>
<path d="M366.875 313.75V328.125C366.875 330.625 368.75 333.125 371.875 333.125H376.875V323.125C376.875 316.875 366.875 313.75 366.875 313.75Z" fill="#F2B200"/>
<path d="M381.875 313.75V328.125C381.875 330.625 380 333.125 376.875 333.125H371.875V323.125C371.875 316.875 381.875 313.75 381.875 313.75Z" fill="#FFCE31"/>
<path d="M373.125 333.75H375.625V375H373.125V333.75Z" fill="#83BF4F"/>
<path d="M346.875 321.25V335.625C346.875 338.125 349.375 340.625 351.875 340.625H356.25V331.25C356.25 323.75 346.875 321.25 346.875 321.25Z" fill="#F2B200"/>
<path d="M361.25 321.25V335.625C361.25 338.125 359.375 340.625 356.25 340.625H351.25V331.25C351.25 323.75 361.25 321.25 361.25 321.25Z" fill="#FFCE31"/>
<path d="M352.5 340.625H355V375H352.5V340.625Z" fill="#83BF4F"/>
<path d="M306.25 356.25H308.75V375H306.25V356.25Z" fill="#83BF4F"/>
<path d="M300 336.875V351.25C300 353.75 301.875 356.25 305 356.25H310V346.25C310 339.375 300 336.875 300 336.875Z" fill="#C94747"/>
<path d="M315 336.875V351.25C315 353.75 313.125 356.25 310 356.25H305V346.25C305 339.375 315 336.875 315 336.875Z" fill="#ED4C5C"/>
<path d="M333.75 341.875H336.25V375H333.75V341.875Z" fill="#83BF4F"/>
<path d="M327.5 321.875V336.25C327.5 338.75 329.375 341.25 332.5 341.25H337.5V331.25C337.5 325 327.5 321.875 327.5 321.875Z" fill="#C94747"/>
<path d="M342.5 321.875V336.25C342.5 338.75 340.625 341.25 337.5 341.25H332.5V331.25C332.5 325 342.5 321.875 342.5 321.875Z" fill="#ED4C5C"/>
<path d="M310 313.75V328.125C310 330.625 311.875 333.125 315 333.125H320V323.125C320 316.875 310 313.75 310 313.75Z" fill="#F2B200"/>
<path d="M324.375 313.75V328.125C324.375 330.625 322.5 333.125 319.375 333.125H314.375V323.125C315 316.875 324.375 313.75 324.375 313.75Z" fill="#FFCE31"/>
<path d="M316.25 333.75H318.75V375H316.25V333.75Z" fill="#83BF4F"/>
<path d="M289.375 321.25V335.625C289.375 338.125 291.25 340.625 294.375 340.625H299.375V331.25C299.375 323.75 289.375 321.25 289.375 321.25Z" fill="#C94747"/>
<path d="M304.375 321.25V335.625C304.375 338.125 302.5 340.625 299.375 340.625H294.375V331.25C294.375 323.75 304.375 321.25 304.375 321.25Z" fill="#ED4C5C"/>
<path d="M295.625 340.625H298.125V375H295.625V340.625Z" fill="#83BF4F"/>
</g>
<defs>
<clipPath id="clip0_101_221">
<rect width="400" height="400" fill="white"/>
</clipPath>
</defs>
</svg>
