<svg width="81" height="80" viewBox="0 0 81 80" fill="none" xmlns="http://www.w3.org/2000/svg">
<g clip-path="url(#clip0_101_310)">
<g clip-path="url(#clip1_101_310)">
<path d="M60.2057 0H21.5277C10.1169 0 0.866699 9.25024 0.866699 20.661V59.339C0.866699 70.7498 10.1169 80 21.5277 80H60.2057C71.6165 80 80.8667 70.7498 80.8667 59.339V20.661C80.8667 9.25024 71.6165 0 60.2057 0Z" fill="#D0F0FD"/>
<path d="M59.8876 21.832H22.1099V60.9615H59.8876V21.832Z" fill="#90DFFF"/>
<path d="M24.3321 19.6099V62.6535H19.8877V19.6099H24.3321Z" fill="#006DFF" fill-opacity="0.5"/>
<path d="M19.9191 58.1782L62.1409 58.7709L62.0785 63.2149L19.8567 62.6222L19.9191 58.1782Z" fill="#006DFF" fill-opacity="0.5"/>
<path d="M19.8567 24.0229L19.9191 19.5789L62.1409 20.1716L62.0785 24.6156L19.8567 24.0229Z" fill="#006DFF" fill-opacity="0.5"/>
<path d="M62.11 19.6099V62.6535H57.6655V19.6099H62.11Z" fill="#006DFF" fill-opacity="0.5"/>
<path d="M25.8876 14.0544H18.332C16.1229 14.0544 14.332 15.8453 14.332 18.0544V25.61C14.332 27.8191 16.1229 29.61 18.332 29.61H25.8876C28.0967 29.61 29.8876 27.8191 29.8876 25.61V18.0544C29.8876 15.8453 28.0967 14.0544 25.8876 14.0544Z" fill="white"/>
<path d="M63.6654 14.0544H56.1099C53.9007 14.0544 52.1099 15.8453 52.1099 18.0544V25.61C52.1099 27.8191 53.9007 29.61 56.1099 29.61H63.6654C65.8746 29.61 67.6654 27.8191 67.6654 25.61V18.0544C67.6654 15.8453 65.8746 14.0544 63.6654 14.0544Z" fill="white"/>
<path d="M25.8876 12.0544H18.332C15.0183 12.0544 12.332 14.7407 12.332 18.0544V25.61C12.332 28.9237 15.0183 31.61 18.332 31.61H25.8876C29.2013 31.61 31.8876 28.9237 31.8876 25.61V18.0544C31.8876 14.7407 29.2013 12.0544 25.8876 12.0544ZM18.332 16.0544H25.8876C26.9922 16.0544 27.8876 16.9499 27.8876 18.0544V25.61C27.8876 26.7146 26.9922 27.61 25.8876 27.61H18.332C17.2275 27.61 16.332 26.7146 16.332 25.61V18.0544C16.332 16.9499 17.2275 16.0544 18.332 16.0544Z" fill="#2600FE"/>
<path d="M63.6654 12.0544H56.1099C52.7962 12.0544 50.1099 14.7407 50.1099 18.0544V25.61C50.1099 28.9237 52.7962 31.61 56.1099 31.61H63.6654C66.9791 31.61 69.6654 28.9237 69.6654 25.61V18.0544C69.6654 14.7407 66.9791 12.0544 63.6654 12.0544ZM56.1099 16.0544H63.6654C64.77 16.0544 65.6654 16.9499 65.6654 18.0544V25.61C65.6654 26.7146 64.77 27.61 63.6654 27.61H56.1099C55.0053 27.61 54.1099 26.7146 54.1099 25.61V18.0544C54.1099 16.9499 55.0053 16.0544 56.1099 16.0544Z" fill="#2600FE"/>
<path d="M25.8876 53.1838H18.332C16.1229 53.1838 14.332 54.9747 14.332 57.1838V64.7394C14.332 66.9485 16.1229 68.7394 18.332 68.7394H25.8876C28.0967 68.7394 29.8876 66.9485 29.8876 64.7394V57.1838C29.8876 54.9747 28.0967 53.1838 25.8876 53.1838Z" fill="white"/>
<path d="M63.6654 53.1838H56.1099C53.9007 53.1838 52.1099 54.9747 52.1099 57.1838V64.7394C52.1099 66.9485 53.9007 68.7394 56.1099 68.7394H63.6654C65.8746 68.7394 67.6654 66.9485 67.6654 64.7394V57.1838C67.6654 54.9747 65.8746 53.1838 63.6654 53.1838Z" fill="white"/>
<path d="M25.8876 51.1838H18.332C15.0183 51.1838 12.332 53.8701 12.332 57.1838V64.7394C12.332 68.0531 15.0183 70.7394 18.332 70.7394H25.8876C29.2013 70.7394 31.8876 68.0531 31.8876 64.7394V57.1838C31.8876 53.8701 29.2013 51.1838 25.8876 51.1838ZM18.332 55.1838H25.8876C26.9922 55.1838 27.8876 56.0793 27.8876 57.1838V64.7394C27.8876 65.844 26.9922 66.7394 25.8876 66.7394H18.332C17.2275 66.7394 16.332 65.844 16.332 64.7394V57.1838C16.332 56.0793 17.2275 55.1838 18.332 55.1838Z" fill="#2600FE"/>
<path d="M63.6654 51.1838H56.1099C52.7962 51.1838 50.1099 53.8701 50.1099 57.1838V64.7394C50.1099 68.0531 52.7962 70.7394 56.1099 70.7394H63.6654C66.9791 70.7394 69.6654 68.0531 69.6654 64.7394V57.1838C69.6654 53.8701 66.9791 51.1838 63.6654 51.1838ZM56.1099 55.1838H63.6654C64.77 55.1838 65.6654 56.0793 65.6654 57.1838V64.7394C65.6654 65.844 64.77 66.7394 63.6654 66.7394H56.1099C55.0053 66.7394 54.1099 65.844 54.1099 64.7394V57.1838C54.1099 56.0793 55.0053 55.1838 56.1099 55.1838Z" fill="#2600FE"/>
</g>
</g>
<defs>
<clipPath id="clip0_101_310">
<rect width="80" height="80" fill="white" transform="translate(0.866699)"/>
</clipPath>
<clipPath id="clip1_101_310">
<rect width="80" height="80" fill="white" transform="translate(0.866699)"/>
</clipPath>
</defs>
</svg>
