<svg width="80" height="80" viewBox="0 0 80 80" fill="none" xmlns="http://www.w3.org/2000/svg">
<g clip-path="url(#clip0_101_299)">
<path d="M59.339 0H20.661C9.25024 0 0 9.25024 0 20.661V59.339C0 70.7498 9.25024 80 20.661 80H59.339C70.7498 80 80 70.7498 80 59.339V20.661C80 9.25024 70.7498 0 59.339 0Z" fill="#FAEBD5"/>
<path d="M32.9683 68.6862L52.3893 56.4582C52.7625 56.2233 52.9889 55.8132 52.9889 55.3722V46.3661C66.7513 37.461 63.5131 16.4127 63.5131 16.4127C41.6551 13.1744 33.5596 27.7464 33.5596 27.7464L24.5844 26.9985C24.1269 26.9603 23.6839 27.1694 23.4227 27.5469L10.4973 46.2168C10.0939 46.7995 10.2393 47.5989 10.822 48.0024C10.997 48.1235 11.1993 48.1992 11.4108 48.2227L23.845 49.6043C26.2736 54.4616 30.3214 56.0807 30.3214 56.0807L31.0035 67.6756C31.0451 68.3831 31.6524 68.923 32.3599 68.8814C32.5759 68.8686 32.7852 68.8015 32.9683 68.6862Z" fill="#DB7944"/>
<path d="M32.9682 68.6864L52.3892 56.4583C52.7624 56.2234 52.9888 55.8133 52.9888 55.3723V46.3662L30.3213 56.0808L31.0033 67.6757C31.045 68.3833 31.6523 68.9231 32.3598 68.8815C32.5758 68.8688 32.7851 68.8016 32.9682 68.6864Z" fill="#D40A0A"/>
<path d="M33.5596 27.7463L24.5844 26.9983C24.1269 26.9602 23.6839 27.1693 23.4227 27.5468L10.4973 46.2166C10.0939 46.7994 10.2393 47.5988 10.822 48.0023C10.997 48.1234 11.1993 48.1991 11.4108 48.2226L23.845 49.6042L33.5596 27.7463Z" fill="#D40A0A"/>
</g>
<defs>
<clipPath id="clip0_101_299">
<rect width="80" height="80" fill="white"/>
</clipPath>
</defs>
</svg>
