<svg width="81" height="80" viewBox="0 0 81 80" fill="none" xmlns="http://www.w3.org/2000/svg">
<g clip-path="url(#clip0_101_331)">
<path d="M60.0724 0H21.3944C9.98363 0 0.733398 9.25024 0.733398 20.661V59.339C0.733398 70.7498 9.98363 80 21.3944 80H60.0724C71.4832 80 80.7334 70.7498 80.7334 59.339V20.661C80.7334 9.25024 71.4832 0 60.0724 0Z" fill="#1FAD6C"/>
<mask id="mask0_101_331" style="mask-type:luminance" maskUnits="userSpaceOnUse" x="0" y="0" width="81" height="80">
<path d="M60.0724 0H21.3944C9.98363 0 0.733398 9.25024 0.733398 20.661V59.339C0.733398 70.7498 9.98363 80 21.3944 80H60.0724C71.4832 80 80.7334 70.7498 80.7334 59.339V20.661C80.7334 9.25024 71.4832 0 60.0724 0Z" fill="white" fill-opacity="0.138221"/>
</mask>
<g mask="url(#mask0_101_331)">
<path fill-rule="evenodd" clip-rule="evenodd" d="M80.7334 29.1766L69.3048 38.6908L57.8763 24.8325L46.4477 30.3458L35.0191 24.8325L23.5906 50.7647L12.162 43.2823L0.733398 53.7158V83.3208H80.7334V29.1766Z" fill="white" fill-opacity="0.138221"/>
</g>
<mask id="mask1_101_331" style="mask-type:luminance" maskUnits="userSpaceOnUse" x="0" y="0" width="81" height="80">
<path d="M60.0724 0H21.3944C9.98363 0 0.733398 9.25024 0.733398 20.661V59.339C0.733398 70.7498 9.98363 80 21.3944 80H60.0724C71.4832 80 80.7334 70.7498 80.7334 59.339V20.661C80.7334 9.25024 71.4832 0 60.0724 0Z" fill="#D0F0FD"/>
</mask>
<g mask="url(#mask1_101_331)">
<path d="M46.4488 27.8179L33.887 21.7612L22.5932 47.3912L11.9314 40.413L-0.800285 52.0361C-1.728 52.8831 -1.7935 54.3217 -0.946548 55.2494C-0.164757 56.1058 1.12122 56.2275 2.04411 55.575L2.26676 55.3957L12.3932 46.149L24.5896 54.1376L36.1532 27.9046L46.4476 32.8713L57.2577 27.6557L69.0037 41.9009L82.1885 30.9248C83.1539 30.1211 83.285 28.6869 82.4813 27.7215C81.7394 26.8303 80.4603 26.6501 79.5086 27.2598L79.278 27.4287L69.6066 35.4801L58.4954 22.0086L46.4488 27.8179Z" fill="#D0F0FD"/>
</g>
</g>
<defs>
<clipPath id="clip0_101_331">
<rect width="80" height="80" fill="white" transform="translate(0.733398)"/>
</clipPath>
</defs>
</svg>
